# xmcd
#
# Track frame offsets:
#	150
#	23606
#	40476
#	61027
#	79119
#	94312
#	110362
#	130749
#	150162
#	169269
#	185777
#	204284
#	228226
#	245483
#	264349
#	279865
#	298228
#	316249
#	339123
#
# Disc length: 4776 seconds
#
# Revision: 1
# Processed by: cddbd v1.5.1PL0 Copyright (c) Steve Scherf et al.
# Submitted via: audiograbber 1.83.01
#
DISCID=f812a613
DTITLE=Joe Cocker - Heart and Soul
DYEAR=2004
DGENRE=Blues
TTITLE0=What's Going On
TTITLE1=Chain Of Fool's
TTITLE2=One
TTITLE3=I Who Have Nothing
TTITLE4=Maybe I'm Amazed
TTITLE5=I Keep Forgetting
TTITLE6=I Put A Spell On You
TTITLE7=Every Kinda People
TTITLE8=Love Don't Live Here Anymore
TTITLE9=Don't Let Me Be Lonely
TTITLE10=Jealous Guy
TTITLE11=Everybody Hurts
TTITLE12=Summer In The City
TTITLE13=Feelin Alright
TTITLE14=Night Calls
TTITLE15=Never Tear Us Apart
TTITLE16=Sorry Seems To Be The Hardest World
TTITLE17=Unchain My Heart
TTITLE18=You Can Leave Your Hat On
EXTD=
EXTT0=
EXTT1=
EXTT2=
EXTT3=
EXTT4=
EXTT5=
EXTT6=
EXTT7=
EXTT8=
EXTT9=
EXTT10=
EXTT11=
EXTT12=
EXTT13=
EXTT14=
EXTT15=
EXTT16=
EXTT17=
EXTT18=
PLAYORDER=
